<svg width="2500" height="2351" viewBox="0 0 2500 2351" fill="none" xmlns="http://www.w3.org/2000/svg">
<path d="M2100.41 673.114C2088.23 610.405 2068.96 549.258 2042.96 490.832C1964.82 318.697 1829.96 178.037 1660.52 91.9671C1491.08 5.8973 1297.15 -20.4612 1110.61 17.2234C1078.96 23.5149 1047.72 31.6669 1017.04 41.6362C972.638 52.607 929.256 67.3078 887.368 85.5792C780.494 132.623 684.603 201.099 605.733 286.694C526.862 372.289 466.721 473.149 429.097 582.922C391.473 692.696 377.181 809.004 387.12 924.524C397.06 1040.04 431.016 1152.27 486.851 1254.14C506.775 1290.39 529.264 1325.2 554.151 1358.3C579.402 1390.99 606.82 1421.99 636.224 1451.07C752.915 1566.2 900.86 1645.19 1062.03 1678.42C1223.2 1711.65 1390.64 1697.69 1543.95 1638.23L1598.12 1615.45L1647.36 1591.03C1680.48 1572.59 1712.29 1551.93 1742.57 1529.19L1786.89 1495.01L1806.59 1477.11L1824.64 1462.46L1857.47 1433.17L1868.96 1423.4L1878.81 1412.01L1908.36 1379.46C1945.33 1337.92 1977.79 1292.65 2005.2 1244.37C2048.28 1169.89 2079.3 1089.15 2097.12 1005.13C2120.49 895.776 2121.61 782.899 2100.41 673.114V673.114ZM1813.15 1442.93L1793.45 1460.83L1773.76 1478.74L1731.08 1512.91C1701.27 1534.53 1670.01 1554.11 1637.52 1571.5L1588.27 1595.92L1535.74 1617.08L1455.31 1643.12H1447.11C1337.27 1665.84 1223.95 1666.39 1113.89 1644.74C1051.12 1632.08 990.002 1612.42 931.687 1586.15C870.171 1558.52 812.291 1523.54 759.334 1481.99C703.245 1437.43 653.057 1386.03 609.961 1329C587.63 1299.47 567.339 1268.48 549.227 1236.24C539.378 1219.96 531.17 1203.69 522.963 1185.78C514.756 1167.88 506.549 1151.6 501.624 1133.7C448.317 995.987 433.295 846.603 458.127 701.163C482.96 555.723 546.736 419.566 642.79 306.922L655.922 293.902L664.129 284.137L673.978 274.371L693.675 256.469L733.07 222.291C826.428 147.281 935.118 93.2929 1051.61 64.0663C1168.1 34.8397 1289.61 31.0735 1407.71 53.0288C1492.22 68.1512 1573.7 96.7308 1649.01 137.66C1697.72 164.169 1743.39 195.818 1785.25 232.056L1818.08 261.351L1829.57 271.116L1839.42 282.509L1868.96 315.059C1962.47 421.155 2026.41 549.63 2054.45 687.761C2076.1 796.352 2075.54 908.148 2052.81 1016.52C2039.94 1078.2 2020.12 1138.26 1993.71 1195.55C1964.86 1256.73 1928.47 1314.13 1885.38 1366.44L1850.91 1405.5L1813.15 1442.93ZM1076.14 1654.51C997.574 1638.4 921.811 1610.99 851.255 1573.13C815.814 1553.86 781.805 1532.1 749.485 1508.03C717.686 1483.99 687.526 1457.9 659.204 1429.91C547.966 1318.31 471.716 1177.14 439.673 1023.49C407.63 869.831 421.165 710.261 478.644 564.07C485.21 546.167 493.417 529.892 499.983 513.617L509.831 492.459C484.365 549.815 465.639 609.886 454.022 671.486C422.539 826.677 436.202 987.544 493.417 1135.33C499.983 1153.23 508.19 1171.13 516.397 1187.41C524.605 1203.69 532.812 1221.59 542.661 1237.86C560.722 1270.66 581.014 1302.2 603.395 1332.26C646.822 1390.02 697.579 1441.98 754.409 1486.87C808.341 1529.17 867.333 1564.7 930.046 1592.66C1077.59 1658.52 1241.23 1680.56 1401.15 1656.14C1293.77 1676.95 1183.29 1676.4 1076.14 1654.51V1654.51ZM2092.2 1005.13C2074.94 1089.08 2044.48 1169.81 2001.92 1244.37C1975.04 1292.58 1943.13 1337.85 1906.72 1379.46L1877.17 1412.01L1867.32 1423.4L1855.83 1433.17L1824.64 1460.83H1827.93L1865.68 1421.77L1900.15 1381.08C1942.87 1327.07 1978.7 1268.03 2006.84 1205.31C2078.67 1043.68 2097.06 863.648 2059.37 691.016C2049.6 645.44 2035.87 600.788 2018.33 557.56C2003.99 521.116 1986.98 485.76 1967.45 451.771C1940.02 403.511 1907.56 358.236 1870.6 316.687L1841.06 284.137L1831.21 272.744L1819.72 262.979L1786.89 233.683C1745.72 194.976 1700.62 160.614 1652.29 131.15C1618.06 111.218 1582.4 93.8113 1545.59 79.0691C1502.04 61.141 1457.01 46.983 1410.99 36.7536C1342.57 21.8177 1272.56 15.2587 1202.53 17.2234C1329.11 6.20725 1456.56 24.021 1575.14 69.304L1627.67 90.4618L1678.55 116.502C1711.08 134.452 1742.34 154.571 1772.12 176.72L1814.79 210.898L1834.49 228.801L1854.19 246.704L1891.94 284.137L1926.41 323.197C1968.91 375.608 2004.74 433.002 2033.11 494.087C2059.51 551.376 2079.34 611.43 2092.2 673.114C2114.48 782.134 2114.48 894.48 2092.2 1003.5V1005.13Z" fill="url(#paint0_linear_0_1)"/>
<path d="M1001.47 1057.54C963.121 1040.11 921.579 978.331 921.579 911.794C921.579 827.831 953.534 670.994 1106.92 447.621C1252.32 236.921 1440.86 76.9158 1608.62 76.9158C1865.87 76.9158 1690.11 623.468 1523.94 1025.86C1413.7 1298.34 1194.8 1615.18 935.959 1615.18C729.845 1615.18 685.107 1379.14 888.025 1201.7C1004.66 1097.15 1137.28 1095.56 1197.99 1103.48C1322.62 1117.74 1340.2 1155.76 1263.5 1139.92C1167.64 1122.49 1017.45 1125.66 915.188 1225.47C757.008 1375.97 769.79 1586.67 931.166 1586.67C1092.54 1586.67 1303.45 1429.83 1490.39 1003.68C1760.41 390.589 1742.84 114.937 1603.83 114.937C1474.41 114.937 1263.5 298.705 1150.06 466.631C1022.24 656.736 950.339 821.494 950.339 916.546C950.339 989.42 993.479 1021.1 1019.04 1036.95C1044.61 1052.79 1025.43 1068.63 1001.47 1057.54V1057.54Z" fill="url(#paint1_linear_0_1)"/>
<path d="M2100.41 673.114C2088.23 610.405 2068.96 549.258 2042.96 490.832C1964.82 318.697 1829.96 178.037 1660.52 91.9671C1491.08 5.8973 1297.15 -20.4612 1110.61 17.2234C1078.96 23.5149 1047.72 31.6669 1017.04 41.6362C972.638 52.607 929.256 67.3078 887.368 85.5792C780.494 132.623 684.603 201.099 605.733 286.694C526.862 372.289 466.721 473.149 429.097 582.922C391.473 692.696 377.181 809.004 387.12 924.524C397.06 1040.04 431.016 1152.27 486.851 1254.14C506.775 1290.39 529.264 1325.2 554.151 1358.3C579.402 1390.99 606.82 1421.99 636.224 1451.07C752.915 1566.2 900.86 1645.19 1062.03 1678.42C1223.2 1711.65 1390.64 1697.69 1543.95 1638.23L1598.12 1615.45L1647.36 1591.03C1680.48 1572.59 1712.29 1551.93 1742.57 1529.19L1786.89 1495.01L1806.59 1477.11L1824.64 1462.46L1857.47 1433.17L1868.96 1423.4L1878.81 1412.01L1908.36 1379.46C1945.33 1337.92 1977.79 1292.65 2005.2 1244.37C2048.28 1169.89 2079.3 1089.15 2097.12 1005.13C2120.49 895.776 2121.61 782.899 2100.41 673.114V673.114ZM1813.15 1442.93L1793.45 1460.83L1773.76 1478.74L1731.08 1512.91C1701.27 1534.53 1670.01 1554.11 1637.52 1571.5L1588.27 1595.92L1535.74 1617.08L1455.31 1643.12H1447.11C1337.27 1665.84 1223.95 1666.39 1113.89 1644.74C1051.12 1632.08 990.002 1612.42 931.687 1586.15C870.171 1558.52 812.291 1523.54 759.334 1481.99C703.245 1437.43 653.057 1386.03 609.961 1329C587.63 1299.47 567.339 1268.48 549.227 1236.24C539.378 1219.96 531.17 1203.69 522.963 1185.78C514.756 1167.88 506.549 1151.6 501.624 1133.7C448.317 995.987 433.295 846.603 458.127 701.163C482.96 555.723 546.736 419.566 642.79 306.922L655.922 293.902L664.129 284.137L673.978 274.371L693.675 256.469L733.07 222.291C826.428 147.281 935.118 93.2929 1051.61 64.0663C1168.1 34.8397 1289.61 31.0735 1407.71 53.0288C1492.22 68.1512 1573.7 96.7308 1649.01 137.66C1697.72 164.169 1743.39 195.818 1785.25 232.056L1818.08 261.351L1829.57 271.116L1839.42 282.509L1868.96 315.059C1962.47 421.155 2026.41 549.63 2054.45 687.761C2076.1 796.352 2075.54 908.148 2052.81 1016.52C2039.94 1078.2 2020.12 1138.26 1993.71 1195.55C1964.86 1256.73 1928.47 1314.13 1885.38 1366.44L1850.91 1405.5L1813.15 1442.93ZM1076.14 1654.51C997.574 1638.4 921.811 1610.99 851.255 1573.13C815.814 1553.86 781.805 1532.1 749.485 1508.03C717.686 1483.99 687.526 1457.9 659.204 1429.91C547.966 1318.31 471.716 1177.14 439.673 1023.49C407.63 869.831 421.165 710.261 478.644 564.07C485.21 546.167 493.417 529.892 499.983 513.617L509.831 492.459C484.365 549.815 465.639 609.886 454.022 671.486C422.539 826.677 436.202 987.544 493.417 1135.33C499.983 1153.23 508.19 1171.13 516.397 1187.41C524.605 1203.69 532.812 1221.59 542.661 1237.86C560.722 1270.66 581.014 1302.2 603.395 1332.26C646.822 1390.02 697.579 1441.98 754.409 1486.87C808.341 1529.17 867.333 1564.7 930.046 1592.66C1077.59 1658.52 1241.23 1680.56 1401.15 1656.14C1293.77 1676.95 1183.29 1676.4 1076.14 1654.51V1654.51ZM2092.2 1005.13C2074.94 1089.08 2044.48 1169.81 2001.92 1244.37C1975.04 1292.58 1943.13 1337.85 1906.72 1379.46L1877.17 1412.01L1867.32 1423.4L1855.83 1433.17L1824.64 1460.83H1827.93L1865.68 1421.77L1900.15 1381.08C1942.87 1327.07 1978.7 1268.03 2006.84 1205.31C2078.67 1043.68 2097.06 863.648 2059.37 691.016C2049.6 645.44 2035.87 600.788 2018.33 557.56C2003.99 521.116 1986.98 485.76 1967.45 451.771C1940.02 403.511 1907.56 358.236 1870.6 316.687L1841.06 284.137L1831.21 272.744L1819.72 262.979L1786.89 233.683C1745.72 194.976 1700.62 160.614 1652.29 131.15C1618.06 111.218 1582.4 93.8113 1545.59 79.0691C1502.04 61.141 1457.01 46.983 1410.99 36.7536C1342.57 21.8177 1272.56 15.2587 1202.53 17.2234C1329.11 6.20725 1456.56 24.021 1575.14 69.304L1627.67 90.4618L1678.55 116.502C1711.08 134.452 1742.34 154.571 1772.12 176.72L1814.79 210.898L1834.49 228.801L1854.19 246.704L1891.94 284.137L1926.41 323.197C1968.91 375.608 2004.74 433.002 2033.11 494.087C2059.51 551.376 2079.34 611.43 2092.2 673.114C2114.48 782.134 2114.48 894.48 2092.2 1003.5V1005.13Z" fill="url(#paint2_linear_0_1)"/>
<path d="M1001.47 1057.54C963.121 1040.11 921.579 978.331 921.579 911.794C921.579 827.831 953.534 670.994 1106.92 447.621C1252.32 236.921 1440.86 76.9158 1608.62 76.9158C1865.87 76.9158 1690.11 623.468 1523.94 1025.86C1413.7 1298.34 1194.8 1615.18 935.959 1615.18C729.845 1615.18 685.107 1379.14 888.025 1201.7C1004.66 1097.15 1137.28 1095.56 1197.99 1103.48C1322.62 1117.74 1340.2 1155.76 1263.5 1139.92C1167.64 1122.49 1017.45 1125.66 915.188 1225.47C757.008 1375.97 769.79 1586.67 931.166 1586.67C1092.54 1586.67 1303.45 1429.83 1490.39 1003.68C1760.41 390.589 1742.84 114.937 1603.83 114.937C1474.41 114.937 1263.5 298.705 1150.06 466.631C1022.24 656.736 950.339 821.494 950.339 916.546C950.339 989.42 993.479 1021.1 1019.04 1036.95C1044.61 1052.79 1025.43 1068.63 1001.47 1057.54V1057.54Z" fill="url(#paint3_linear_0_1)"/>
<path d="M2100.41 673.114C2088.23 610.405 2068.96 549.258 2042.96 490.832C1964.82 318.697 1829.96 178.037 1660.52 91.9671C1491.08 5.8973 1297.15 -20.4612 1110.61 17.2234C1078.96 23.5149 1047.72 31.6669 1017.04 41.6362C972.638 52.607 929.256 67.3078 887.368 85.5792C780.494 132.623 684.603 201.099 605.733 286.694C526.862 372.289 466.721 473.149 429.097 582.922C391.473 692.696 377.181 809.004 387.12 924.524C397.06 1040.04 431.016 1152.27 486.851 1254.14C506.775 1290.39 529.264 1325.2 554.151 1358.3C579.402 1390.99 606.82 1421.99 636.224 1451.07C752.915 1566.2 900.86 1645.19 1062.03 1678.42C1223.2 1711.65 1390.64 1697.69 1543.95 1638.23L1598.12 1615.45L1647.36 1591.03C1680.48 1572.59 1712.29 1551.93 1742.57 1529.19L1786.89 1495.01L1806.59 1477.11L1824.64 1462.46L1857.47 1433.17L1868.96 1423.4L1878.81 1412.01L1908.36 1379.46C1945.33 1337.92 1977.79 1292.65 2005.2 1244.37C2048.28 1169.89 2079.3 1089.15 2097.12 1005.13C2120.49 895.776 2121.61 782.899 2100.41 673.114V673.114ZM1813.15 1442.93L1793.45 1460.83L1773.76 1478.74L1731.08 1512.91C1701.27 1534.53 1670.01 1554.11 1637.52 1571.5L1588.27 1595.92L1535.74 1617.08L1455.31 1643.12H1447.11C1337.27 1665.84 1223.95 1666.39 1113.89 1644.74C1051.12 1632.08 990.002 1612.42 931.687 1586.15C870.171 1558.52 812.291 1523.54 759.334 1481.99C703.245 1437.43 653.057 1386.03 609.961 1329C587.63 1299.47 567.339 1268.48 549.227 1236.24C539.378 1219.96 531.17 1203.69 522.963 1185.78C514.756 1167.88 506.549 1151.6 501.624 1133.7C448.317 995.987 433.295 846.603 458.127 701.163C482.96 555.723 546.736 419.566 642.79 306.922L655.922 293.902L664.129 284.137L673.978 274.371L693.675 256.469L733.07 222.291C826.428 147.281 935.118 93.2929 1051.61 64.0663C1168.1 34.8397 1289.61 31.0735 1407.71 53.0288C1492.22 68.1512 1573.7 96.7308 1649.01 137.66C1697.72 164.169 1743.39 195.818 1785.25 232.056L1818.08 261.351L1829.57 271.116L1839.42 282.509L1868.96 315.059C1962.47 421.155 2026.41 549.63 2054.45 687.761C2076.1 796.352 2075.54 908.148 2052.81 1016.52C2039.94 1078.2 2020.12 1138.26 1993.71 1195.55C1964.86 1256.73 1928.47 1314.13 1885.38 1366.44L1850.91 1405.5L1813.15 1442.93ZM1076.14 1654.51C997.574 1638.4 921.811 1610.99 851.255 1573.13C815.814 1553.86 781.805 1532.1 749.485 1508.03C717.686 1483.99 687.526 1457.9 659.204 1429.91C547.966 1318.31 471.716 1177.14 439.673 1023.49C407.63 869.831 421.165 710.261 478.644 564.07C485.21 546.167 493.417 529.892 499.983 513.617L509.831 492.459C484.365 549.815 465.639 609.886 454.022 671.486C422.539 826.677 436.202 987.544 493.417 1135.33C499.983 1153.23 508.19 1171.13 516.397 1187.41C524.605 1203.69 532.812 1221.59 542.661 1237.86C560.722 1270.66 581.014 1302.2 603.395 1332.26C646.822 1390.02 697.579 1441.98 754.409 1486.87C808.341 1529.17 867.333 1564.7 930.046 1592.66C1077.59 1658.52 1241.23 1680.56 1401.15 1656.14C1293.77 1676.95 1183.29 1676.4 1076.14 1654.51V1654.51ZM2092.2 1005.13C2074.94 1089.08 2044.48 1169.81 2001.92 1244.37C1975.04 1292.58 1943.13 1337.85 1906.72 1379.46L1877.17 1412.01L1867.32 1423.4L1855.83 1433.17L1824.64 1460.83H1827.93L1865.68 1421.77L1900.15 1381.08C1942.87 1327.07 1978.7 1268.03 2006.84 1205.31C2078.67 1043.68 2097.06 863.648 2059.37 691.016C2049.6 645.44 2035.87 600.788 2018.33 557.56C2003.99 521.116 1986.98 485.76 1967.45 451.771C1940.02 403.511 1907.56 358.236 1870.6 316.687L1841.06 284.137L1831.21 272.744L1819.72 262.979L1786.89 233.683C1745.72 194.976 1700.62 160.614 1652.29 131.15C1618.06 111.218 1582.4 93.8113 1545.59 79.0691C1502.04 61.141 1457.01 46.983 1410.99 36.7536C1342.57 21.8177 1272.56 15.2587 1202.53 17.2234C1329.11 6.20725 1456.56 24.021 1575.14 69.304L1627.67 90.4618L1678.55 116.502C1711.08 134.452 1742.34 154.571 1772.12 176.72L1814.79 210.898L1834.49 228.801L1854.19 246.704L1891.94 284.137L1926.41 323.197C1968.91 375.608 2004.74 433.002 2033.11 494.087C2059.51 551.376 2079.34 611.43 2092.2 673.114C2114.48 782.134 2114.48 894.48 2092.2 1003.5V1005.13Z" fill="url(#paint4_linear_0_1)"/>
<path d="M1001.46 1057.54C963.117 1040.11 921.575 978.331 921.575 911.794C921.575 827.831 953.531 670.994 1106.92 447.621C1252.32 236.921 1440.85 76.9158 1608.62 76.9158C1865.86 76.9158 1690.11 623.468 1523.94 1025.86C1413.69 1298.34 1194.8 1615.18 935.955 1615.18C729.841 1615.18 685.104 1379.14 888.022 1201.7C1004.66 1097.15 1137.28 1095.56 1197.99 1103.48C1322.62 1117.74 1340.19 1155.76 1263.5 1139.92C1167.63 1122.49 1017.44 1125.66 915.184 1225.47C757.004 1375.97 769.786 1586.67 931.162 1586.67C1092.54 1586.67 1303.44 1429.83 1490.38 1003.68C1760.41 390.589 1742.83 114.937 1603.83 114.937C1474.41 114.937 1263.5 298.705 1150.06 466.631C1022.24 656.736 950.335 821.494 950.335 916.546C950.335 989.42 993.475 1021.1 1019.04 1036.95C1044.6 1052.79 1025.43 1068.63 1001.46 1057.54V1057.54Z" fill="url(#paint5_linear_0_1)"/>
<path d="M0 2206.49V1756H71.3981V2206.49H0ZM312.659 1874.42C396.389 1874.42 442.473 1929.12 442.473 2016.64V2206.49H374.97V2028.87C374.97 1972.24 347.709 1937.48 294.485 1937.48C237.366 1937.48 200.369 1980.6 200.369 2045.6V2206.49H132.216V1882.78H200.369V1931.05C223.087 1898.87 260.733 1874.42 312.659 1874.42ZM680.489 1874.42C764.219 1874.42 810.304 1929.12 810.304 2016.64V2206.49H742.8V2028.87C742.8 1972.24 715.539 1937.48 662.315 1937.48C605.196 1937.48 568.199 1980.6 568.199 2045.6V2206.49H500.046V1882.78H568.199V1931.05C590.917 1898.87 628.563 1874.42 680.489 1874.42ZM1021.06 2214.86C921.1 2214.86 847.755 2141.49 847.755 2044.32C847.755 1947.78 921.1 1874.42 1021.06 1874.42C1121.02 1874.42 1194.36 1947.78 1194.36 2044.32C1194.36 2141.49 1121.02 2214.86 1021.06 2214.86ZM1021.06 2153.72C1083.37 2153.72 1128.15 2106.74 1128.15 2044.96C1128.15 1982.53 1083.37 1935.55 1021.06 1935.55C958.747 1935.55 913.961 1982.53 913.961 2044.96C913.961 2106.74 958.747 2153.72 1021.06 2153.72ZM1704.79 2206.49L1661.3 2097.09H1445.16L1401.67 2206.49H1328.33L1508.12 1756H1598.34L1778.14 2206.49H1704.79V2206.49ZM1469.18 2035.31H1637.29L1553.56 1822.29L1469.18 2035.31ZM2056.4 1882.78H2124.55V2194.91C2124.55 2285.01 2058.34 2350.01 1959.03 2350.01C1880.5 2350.01 1830.52 2313.97 1803.26 2265.7L1862.97 2243.82C1882.44 2276 1913.6 2293.37 1960.33 2293.37C2022.64 2293.37 2055.75 2250.9 2056.4 2195.55V2147.93C2031.08 2182.04 1991.49 2202.63 1941.51 2202.63C1846.74 2202.63 1778.59 2131.2 1778.59 2038.52C1778.59 1942.63 1846.74 1874.42 1941.51 1874.42C1991.49 1874.42 2031.08 1895.01 2056.4 1928.47V1882.78ZM1951.89 2142.14C2012.26 2142.14 2058.34 2098.37 2058.34 2038.52C2058.34 1978.67 2012.26 1935.55 1951.89 1935.55C1888.93 1935.55 1845.45 1978.67 1845.45 2038.52C1845.45 2098.37 1888.93 2142.14 1951.89 2142.14V2142.14ZM2339.2 2214.86C2237.29 2214.86 2165.24 2147.28 2165.24 2044.96C2165.24 1948.42 2232.1 1874.42 2333.35 1874.42C2439.15 1874.42 2499.52 1947.14 2499.52 2038.52C2499.52 2048.18 2498.87 2055.9 2497.57 2065.55H2232.1C2236.64 2118.97 2274.29 2156.94 2340.49 2156.94C2389.17 2156.94 2419.68 2133.13 2433.31 2104.81L2495.62 2122.83C2475.5 2166.59 2424.22 2214.86 2339.2 2214.86V2214.86ZM2232.1 2020.5L2432.66 2019.86C2428.77 1970.31 2393.07 1932.34 2333.35 1932.34C2274.94 1932.34 2236.64 1974.17 2232.1 2020.5Z" fill="url(#paint6_linear_0_1)"/>
<defs>
<linearGradient id="paint0_linear_0_1" x1="384.055" y1="0.480469" x2="2115.52" y2="0.480469" gradientUnits="userSpaceOnUse">
<stop stop-color="#6D7CFF"/>
<stop offset="1" stop-color="#FF51FF"/>
</linearGradient>
<linearGradient id="paint1_linear_0_1" x1="756.652" y1="76.9158" x2="1738.77" y2="76.9158" gradientUnits="userSpaceOnUse">
<stop stop-color="#6D7CFF"/>
<stop offset="1" stop-color="#FF51FF"/>
</linearGradient>
<linearGradient id="paint2_linear_0_1" x1="384.055" y1="0.480469" x2="2115.52" y2="0.480469" gradientUnits="userSpaceOnUse">
<stop stop-color="#6D7CFF"/>
<stop offset="1" stop-color="#FF51FF"/>
</linearGradient>
<linearGradient id="paint3_linear_0_1" x1="756.652" y1="76.9158" x2="1738.77" y2="76.9158" gradientUnits="userSpaceOnUse">
<stop stop-color="#6D7CFF"/>
<stop offset="1" stop-color="#FF51FF"/>
</linearGradient>
<linearGradient id="paint4_linear_0_1" x1="384.055" y1="0.480469" x2="2115.52" y2="0.480469" gradientUnits="userSpaceOnUse">
<stop stop-color="#6D7CFF"/>
<stop offset="1" stop-color="#FF51FF"/>
</linearGradient>
<linearGradient id="paint5_linear_0_1" x1="756.648" y1="76.9158" x2="1738.76" y2="76.9158" gradientUnits="userSpaceOnUse">
<stop stop-color="#6D7CFF"/>
<stop offset="1" stop-color="#FF51FF"/>
</linearGradient>
<linearGradient id="paint6_linear_0_1" x1="-95.4844" y1="2102.4" x2="2811.51" y2="2079.2" gradientUnits="userSpaceOnUse">
<stop stop-color="#6E7CFF"/>
<stop offset="1" stop-color="#FF52FF"/>
</linearGradient>
</defs>
</svg>
